<svg version="1.1" xmlns="http://www.w3.org/2000/svg" viewBox="0 0 896.5192436644131 687.6498449324883" width="1793.0384873288262" height="1375.2996898649767">
  <!-- svg-source:excalidraw -->
  
  <defs>
    <style class="style-fonts">
      @font-face {
        font-family: "Virgil";
        src: url("https://excalidraw.com/Virgil.woff2");
      }
      @font-face {
        font-family: "Cascadia";
        src: url("https://excalidraw.com/Cascadia.woff2");
      }
      @font-face {
        font-family: "Assistant";
        src: url("https://excalidraw.com/Assistant-Regular.woff2");
      }
    </style>
    
  </defs>
  <rect x="0" y="0" width="896.5192436644131" height="687.6498449324883" fill="#ffffff"></rect><g stroke-linecap="round" transform="translate(19.597368664413125 89.16433315270314) rotate(0 106.66015625 22)"><path d="M0.85 0.13 L214.97 1.53 L211.44 43.31 L1.58 43.72" stroke="none" stroke-width="0" fill="#f9f"></path><path d="M0 0 C46.96 -0.22, 96.6 -3.05, 213.32 0 M0 0 C61.81 -0.8, 123.47 -0.95, 213.32 0 M213.32 0 C213.75 11.01, 212.15 25.9, 213.32 44 M213.32 0 C212.34 10.51, 212.6 20.57, 213.32 44 M213.32 44 C142.61 42.87, 71.22 43.07, 0 44 M213.32 44 C138.52 46.46, 62.32 46.46, 0 44 M0 44 C0.75 31.92, -1.62 21.35, 0 0 M0 44 C0.18 29.56, -0.35 14.91, 0 0" stroke="#333" stroke-width="4" fill="none"></path></g><g transform="translate(38.56760639634672 98.66433315270314) rotate(0 87.6899185180664 12.5)"><text x="87.6899185180664" y="17.52" font-family="Virgil, Segoe UI Emoji" font-size="20px" fill="#333" text-anchor="middle" style="white-space: pre;" direction="ltr" dominant-baseline="alphabetic">Node Registration</text></g><g stroke-linecap="round" transform="translate(332.3200249144131 212.16433315270314) rotate(0 92.578125 22)"><path d="M1.65 1.53 L183.28 -0.69 L186.73 43.72 L-1.48 44.89" stroke="none" stroke-width="0" fill="#bbf"></path><path d="M0 0 C70.72 -3.13, 138.1 -2.41, 185.16 0 M0 0 C61.56 -0.02, 123.64 -0.61, 185.16 0 M185.16 0 C184.59 14.1, 183.85 25.31, 185.16 44 M185.16 0 C184.37 18.03, 185.16 34.34, 185.16 44 M185.16 44 C135.25 43.07, 87.13 45.35, 0 44 M185.16 44 C112.78 46.45, 39.78 45.83, 0 44 M0 44 C-1.7 28.38, 0.21 15.68, 0 0 M0 44 C-0.48 26.51, 0.39 10.96, 0 0" stroke="#333" stroke-width="4" fill="none"></path></g><g transform="translate(346.92820972886625 221.66433315270314) rotate(0 77.96994018554688 12.5)"><text x="77.96994018554688" y="17.52" font-family="Virgil, Segoe UI Emoji" font-size="20px" fill="#333" text-anchor="middle" style="white-space: pre;" direction="ltr" dominant-baseline="alphabetic">Smart Contract</text></g><g stroke-linecap="round" transform="translate(137.42354053941312 339.8836567433013) rotate(0 84.19921875 43.523433685302734)"><path d="M0 0 C61.42 0.41, 123.93 1.43, 168.4 0 M0 0 C47.3 -0.36, 94.91 1.02, 168.4 0 M168.4 0 C166.58 18.39, 169.94 37.69, 168.4 87.05 M168.4 0 C168.31 30.95, 167.67 62.56, 168.4 87.05 M168.4 87.05 C123.99 88.63, 79.25 88.33, 0 87.05 M168.4 87.05 C102.82 88.75, 38.65 88.93, 0 87.05 M0 87.05 C1.06 67.44, 2.18 48.85, 0 0 M0 87.05 C0.81 64.14, 1.21 41.87, 0 0" stroke="#1e1e1e" stroke-width="2" fill="none"></path></g><g transform="translate(153.96282429185453 370.907090428604) rotate(0 67.6599349975586 12.5)"><text x="67.6599349975586" y="17.52" font-family="Virgil, Segoe UI Emoji" font-size="20px" fill="#1e1e1e" text-anchor="middle" style="white-space: pre;" direction="ltr" dominant-baseline="alphabetic">Node Registry</text></g><g stroke-linecap="round" transform="translate(282.9176811644131 89.16433315270314) rotate(0 141.98046875 22)"><path d="M1.58 -0.28 L282.49 0.89 L285.04 45.37 L-0.61 42.67" stroke="none" stroke-width="0" fill="#f99"></path><path d="M0 0 C58.66 1.15, 116.01 0.77, 283.96 0 M0 0 C75.17 2.37, 149.76 1.77, 283.96 0 M283.96 0 C285.5 13.65, 284.81 29.24, 283.96 44 M283.96 0 C283.78 16.49, 283.8 32.6, 283.96 44 M283.96 44 C205.47 47.27, 125.52 46.06, 0 44 M283.96 44 C174.36 44.85, 63.9 43.95, 0 44 M0 44 C1.44 34.65, -0.81 24.06, 0 0 M0 44 C0.64 35.7, -1.13 25.51, 0 0" stroke="#333" stroke-width="4" fill="none"></path></g><g transform="translate(308.7382530638272 98.66433315270314) rotate(0 116.15989685058594 12.5)"><text x="116.15989685058594" y="17.52" font-family="Virgil, Segoe UI Emoji" font-size="20px" fill="#333" text-anchor="middle" style="white-space: pre;" direction="ltr" dominant-baseline="alphabetic">Submit Threat Summary</text></g><g stroke-linecap="round" transform="translate(419.1481499144131 335.164335895257) rotate(0 145.69921875 48.24275588989258)"><path d="M0 0 C69.78 -0.32, 139.58 -0.04, 291.4 0 M0 0 C59.16 -1.2, 119.76 -1.48, 291.4 0 M291.4 0 C293.47 22.37, 293.75 47.25, 291.4 96.49 M291.4 0 C290.79 26.09, 290.9 53.07, 291.4 96.49 M291.4 96.49 C177.54 98.23, 62.41 97.31, 0 96.49 M291.4 96.49 C196.28 96.85, 101.72 97.57, 0 96.49 M0 96.49 C-1.46 68.69, -2.61 43.5, 0 0 M0 96.49 C-1.74 66.57, -0.01 37.21, 0 0" stroke="#1e1e1e" stroke-width="2" fill="none"></path></g><g transform="translate(440.97747272935453 370.9070917851496) rotate(0 123.8698959350586 12.5)"><text x="123.8698959350586" y="17.52" font-family="Virgil, Segoe UI Emoji" font-size="20px" fill="#1e1e1e" text-anchor="middle" style="white-space: pre;" direction="ltr" dominant-baseline="alphabetic">Threat Summary Storage</text></g><g stroke-linecap="round" transform="translate(616.8786186644131 89.16433315270314) rotate(0 134.8203125 22)"><path d="M1.08 1.37 L269.03 -1.33 L269.76 45.87 L-1.18 42.16" stroke="none" stroke-width="0" fill="#ff9"></path><path d="M0 0 C78 0.48, 155.62 0.73, 269.64 0 M0 0 C92.63 0.21, 184.14 1.52, 269.64 0 M269.64 0 C271.35 10.68, 269.34 19.43, 269.64 44 M269.64 0 C269.32 14.2, 270.46 28.22, 269.64 44 M269.64 44 C168.55 43.04, 65.13 44.27, 0 44 M269.64 44 C176.56 42.56, 84.63 43, 0 44 M0 44 C-1.72 31.27, 0.29 18.49, 0 0 M0 44 C1.2 27.29, -0.32 11.3, 0 0" stroke="#333" stroke-width="4" fill="none"></path></g><g transform="translate(636.7590279051358 98.66433315270314) rotate(0 114.93990325927734 12.5)"><text x="114.93990325927734" y="17.52" font-family="Virgil, Segoe UI Emoji" font-size="20px" fill="#333" text-anchor="middle" style="white-space: pre;" direction="ltr" dominant-baseline="alphabetic">Check for New Threats</text></g><g stroke-linecap="round" transform="translate(475.6012749144131 510.6498449324883) rotate(0 89.24609375 22)"><path d="M-0.61 -1.33 L178.61 1.87 L177.31 42.16 L-1.56 45.37" stroke="none" stroke-width="0" fill="#99f"></path><path d="M0 0 C45.57 0.3, 95.79 -1.23, 178.49 0 M0 0 C46.27 2.26, 93 1.92, 178.49 0 M178.49 0 C178.26 10.5, 179.02 21.69, 178.49 44 M178.49 0 C179.36 13.33, 179.21 25.69, 178.49 44 M178.49 44 C125.4 43.24, 72.19 41.31, 0 44 M178.49 44 C138.23 45.12, 98.48 43.99, 0 44 M0 44 C0.54 34.39, 1.95 19.59, 0 0 M0 44 C-1.08 32.77, 0.19 21.33, 0 0" stroke="#333" stroke-width="4" fill="none"></path></g><g transform="translate(496.62742847886625 520.1498449324883) rotate(0 68.21994018554688 12.5)"><text x="68.21994018554688" y="17.52" font-family="Virgil, Segoe UI Emoji" font-size="20px" fill="#333" text-anchor="middle" style="white-space: pre;" direction="ltr" dominant-baseline="alphabetic">Node Endpoint</text></g><g stroke-linecap="round" transform="translate(532.5036186644131 633.6498449324883) rotate(0 32.34375 22)"><path d="M0.11 1.87 L63.51 -1.84 L63.13 45.37 L1.7 42.58" stroke="none" stroke-width="0" fill="#fc9"></path><path d="M0 0 C19.25 -1.51, 36.06 0.85, 64.69 0 M0 0 C13.87 -0.02, 28.71 0.12, 64.69 0 M64.69 0 C64.77 14.02, 64.21 28.87, 64.69 44 M64.69 0 C65.91 16.43, 65.11 32.01, 64.69 44 M64.69 44 C50.12 42.52, 32.34 42.44, 0 44 M64.69 44 C44.08 44.13, 22.86 43.55, 0 44 M0 44 C1.5 27.05, -0.72 15.44, 0 0 M0 44 C0.86 32.1, 0.02 18.17, 0 0" stroke="#333" stroke-width="4" fill="none"></path></g><g transform="translate(542.5073875853116 643.1498449324883) rotate(0 22.339981079101562 12.5)"><text x="22.339981079101562" y="17.52" font-family="Virgil, Segoe UI Emoji" font-size="20px" fill="#333" text-anchor="middle" style="white-space: pre;" direction="ltr" dominant-baseline="alphabetic">User</text></g><g mask="url(#mask-u_G8T1NlzGPMwQsui3QIo)" stroke-linecap="round"><g transform="translate(126.75736866441298 133.66433315270314) rotate(0 99.68600000000004 39.93299999999999)"><path d="M-0.9 -0.45 C-0.9 5.82, -33.33 24.53, 0.01 38.11 C33.36 51.68, 166 73.91, 199.17 80.99 M0.82 -1.73 C0.71 4.62, -34.14 25.68, -0.66 39.17 C32.81 52.67, 168.45 72.7, 201.7 79.23" stroke="#1e1e1e" stroke-width="2" fill="none"></path></g><g transform="translate(126.75736866441298 133.66433315270314) rotate(0 99.68600000000004 39.93299999999999)"><path d="M177.09 83.66 C183.73 83.37, 190.39 80.01, 201.7 79.23 M177.09 83.66 C186.34 82.5, 196.81 79.75, 201.7 79.23" stroke="#1e1e1e" stroke-width="2" fill="none"></path></g><g transform="translate(126.75736866441298 133.66433315270314) rotate(0 99.68600000000004 39.93299999999999)"><path d="M180 66.81 C185.83 71.57, 191.62 73.28, 201.7 79.23 M180 66.81 C187.98 72.29, 197.3 76.18, 201.7 79.23" stroke="#1e1e1e" stroke-width="2" fill="none"></path></g></g><mask id="mask-u_G8T1NlzGPMwQsui3QIo"><rect x="0" y="0" fill="#fff" width="427.12936866441294" height="313.5303331527031"></rect><rect x="57.81743488755751" y="160.1643331527032" fill="#000" width="136.87986755371094" height="25" opacity="1"></rect></mask><g transform="translate(57.81743488755751 160.1643331527032) rotate(0 162.192107446274 13.127803024455886)"><text x="68.43993377685547" y="17.52" font-family="Virgil, Segoe UI Emoji" font-size="20px" fill="#1e1e1e" text-anchor="middle" style="white-space: pre;" direction="ltr" dominant-baseline="alphabetic">Register Node</text></g><g mask="url(#mask-WHOw6SuPlQAOgGmTYT4M-)" stroke-linecap="round"><g transform="translate(352.1813686644132 256.66433315270314) rotate(0 -65.27949999999998 38.70949999999999)"><path d="M0.51 -0.89 C-21.21 5.87, -109.27 26.95, -131.26 40.12 C-153.25 53.29, -131.45 71.76, -131.42 78.12 M-0.67 1.25 C-21.93 7.74, -107.53 26.1, -128.92 38.59 C-150.3 51.07, -128.61 69.88, -128.98 76.15" stroke="#1e1e1e" stroke-width="2" fill="none"></path></g><g transform="translate(352.1813686644132 256.66433315270314) rotate(0 -65.27949999999998 38.70949999999999)"><path d="M-142.42 62.42 C-140.88 64.33, -134.63 67.16, -128.98 76.15 M-142.42 62.42 C-137.35 66.98, -133.15 72.28, -128.98 76.15" stroke="#1e1e1e" stroke-width="2" fill="none"></path></g><g transform="translate(352.1813686644132 256.66433315270314) rotate(0 -65.27949999999998 38.70949999999999)"><path d="M-130.45 57 C-131.62 60.17, -128.07 64.22, -128.98 76.15 M-130.45 57 C-129.7 63.59, -129.8 70.83, -128.98 76.15" stroke="#1e1e1e" stroke-width="2" fill="none"></path></g></g><mask id="mask-WHOw6SuPlQAOgGmTYT4M-"><rect x="0" y="0" fill="#fff" width="582.7403686644132" height="434.0833331527032"></rect><rect x="140.9224403807218" y="283.1643331527032" fill="#000" width="161.3998565673828" height="25" opacity="1"></rect></mask><g transform="translate(140.9224403807218 283.1643331527032) rotate(0 140.97545550343511 12.114970540001991)"><text x="80.6999282836914" y="17.52" font-family="Virgil, Segoe UI Emoji" font-size="20px" fill="#1e1e1e" text-anchor="middle" style="white-space: pre;" direction="ltr" dominant-baseline="alphabetic">Store Node Info</text></g><g mask="url(#mask-txJxSmFNBl8jnPrumhf3J)" stroke-linecap="round"><g transform="translate(424.89836866441306 133.66433315270314) rotate(0 0 36.35000000000002)"><path d="M-0.7 1.12 C-0.93 7.89, -0.89 27.63, -0.86 39.7 C-0.84 51.78, -0.77 68.13, -0.56 73.57 M1.13 0.66 C1.23 7.16, 1.86 26.12, 1.4 37.95 C0.94 49.79, -1.53 65.79, -1.62 71.68" stroke="#1e1e1e" stroke-width="2" fill="none"></path></g><g transform="translate(424.89836866441306 133.66433315270314) rotate(0 0 36.35000000000002)"><path d="M-6.11 55.44 C-3.12 59.83, -2.17 65.82, -1.62 71.68 M-6.11 55.44 C-4.66 61.59, -2.97 67.4, -1.62 71.68" stroke="#1e1e1e" stroke-width="2" fill="none"></path></g><g transform="translate(424.89836866441306 133.66433315270314) rotate(0 0 36.35000000000002)"><path d="M5.38 56.35 C4.44 60.36, 1.45 66.04, -1.62 71.68 M5.38 56.35 C2.55 62.13, -0.04 67.6, -1.62 71.68" stroke="#1e1e1e" stroke-width="2" fill="none"></path></g></g><mask id="mask-txJxSmFNBl8jnPrumhf3J"><rect x="0" y="0" fill="#fff" width="524.898368664413" height="306.3643331527031"></rect><rect x="348.8084409910732" y="160.1643331527032" fill="#000" width="152.1798553466797" height="25" opacity="1"></rect></mask><g transform="translate(348.8084409910732 160.1643331527032) rotate(0 76.06084641599614 10.616662639006961)"><text x="76.08992767333984" y="17.52" font-family="Virgil, Segoe UI Emoji" font-size="20px" fill="#1e1e1e" text-anchor="middle" style="white-space: pre;" direction="ltr" dominant-baseline="alphabetic">Submit Summary</text></g><g mask="url(#mask-RLu87SdIBDpEhc673sraa)" stroke-linecap="round"><g transform="translate(441.996368664413 256.66433315270314) rotate(0 33.55099999999993 37.7235)"><path d="M-0.86 0.7 C4.04 7.16, 17.35 27.47, 28.74 39.87 C40.13 52.27, 61.16 69.16, 67.49 75.11 M0.89 0.03 C5.65 6.67, 16.49 25.5, 27.5 38.2 C38.51 50.91, 60.38 69.83, 66.93 76.26" stroke="#1e1e1e" stroke-width="2" fill="none"></path></g><g transform="translate(441.996368664413 256.66433315270314) rotate(0 33.55099999999993 37.7235)"><path d="M43.89 66.54 C50.72 68.12, 56.56 72.05, 66.93 76.26 M43.89 66.54 C49.83 68.99, 56.21 72.35, 66.93 76.26" stroke="#1e1e1e" stroke-width="2" fill="none"></path></g><g transform="translate(441.996368664413 256.66433315270314) rotate(0 33.55099999999993 37.7235)"><path d="M55.52 54.01 C59.66 58.53, 62.69 65.48, 66.93 76.26 M55.52 54.01 C58.26 59.87, 61.47 66.65, 66.93 76.26" stroke="#1e1e1e" stroke-width="2" fill="none"></path></g></g><mask id="mask-RLu87SdIBDpEhc673sraa"><rect x="0" y="0" fill="#fff" width="609.098368664413" height="432.11133315270314"></rect><rect x="399.1784345823819" y="283.1643331527032" fill="#000" width="144.2398681640625" height="25" opacity="1"></rect></mask><g transform="translate(399.1784345823819 283.1643331527032) rotate(0 76.13162774161981 11.642545502617963)"><text x="72.11993408203125" y="17.52" font-family="Virgil, Segoe UI Emoji" font-size="20px" fill="#1e1e1e" text-anchor="middle" style="white-space: pre;" direction="ltr" dominant-baseline="alphabetic">Store Summary</text></g><g mask="url(#mask-RN5lSTMMyCUenG3Lum9_h)" stroke-linecap="round"><g transform="translate(751.199368664413 133.66433315270314) rotate(0 -113.75749999999994 40.79899999999998)"><path d="M-0.56 0.87 C-0.27 7.2, 38.86 25.19, 0.89 38.67 C-37.09 52.14, -190.19 74.6, -228.4 81.72 M1.35 0.28 C1.59 6.72, 38.6 26.22, 0.14 40.03 C-38.31 53.83, -191.3 76.05, -229.37 83.11" stroke="#1e1e1e" stroke-width="2" fill="none"></path></g><g transform="translate(751.199368664413 133.66433315270314) rotate(0 -113.75749999999994 40.79899999999998)"><path d="M-207.6 70.82 C-211.04 74.17, -218.02 75.68, -229.37 83.11 M-207.6 70.82 C-214.58 75.14, -220.2 79.32, -229.37 83.11" stroke="#1e1e1e" stroke-width="2" fill="none"></path></g><g transform="translate(751.199368664413 133.66433315270314) rotate(0 -113.75749999999994 40.79899999999998)"><path d="M-204.8 87.69 C-208.98 87.18, -216.59 84.84, -229.37 83.11 M-204.8 87.69 C-212.6 86.77, -219.09 85.71, -229.37 83.11" stroke="#1e1e1e" stroke-width="2" fill="none"></path></g></g><mask id="mask-RN5lSTMMyCUenG3Lum9_h"><rect x="0" y="0" fill="#fff" width="1079.714368664413" height="315.26233315270315"></rect><rect x="658.2794544188073" y="160.1643331527032" fill="#000" width="186.83982849121094" height="25" opacity="1"></rect></mask><g transform="translate(658.2794544188075 160.1643331527032) rotate(0 -12.963157615884938 15.19293366016447)"><text x="93.41991424560547" y="17.52" font-family="Virgil, Segoe UI Emoji" font-size="20px" fill="#1e1e1e" text-anchor="middle" style="white-space: pre;" direction="ltr" dominant-baseline="alphabetic">Request Summaries</text></g><g mask="url(#mask-9vCbuMT_YJo3R44e_4zrW)" stroke-linecap="round"><g transform="translate(516.976368664413 256.4243331527031) rotate(0 84.78999999999996 38.498500000000035)"><path d="M0.39 -0.33 C28.68 6.08, 149.4 26.51, 169.19 39.36 C188.99 52.22, 127.47 70.4, 119.16 76.78 M-0.87 -1.55 C27.28 5, 148.19 27.71, 168.04 40.97 C187.88 54.22, 126.31 72.25, 118.2 77.99" stroke="#1e1e1e" stroke-width="2" fill="none"></path></g><g transform="translate(516.976368664413 256.4243331527031) rotate(0 84.78999999999996 38.498500000000035)"><path d="M136.21 60.65 C131.22 64.45, 127.42 68.89, 118.2 77.99 M136.21 60.65 C132.05 66.55, 126.81 71.39, 118.2 77.99" stroke="#1e1e1e" stroke-width="2" fill="none"></path></g><g transform="translate(516.976368664413 256.4243331527031) rotate(0 84.78999999999996 38.498500000000035)"><path d="M143.14 76.28 C136.28 76.15, 130.73 76.63, 118.2 77.99 M143.14 76.28 C137.05 77.81, 129.86 78.24, 118.2 77.99" stroke="#1e1e1e" stroke-width="2" fill="none"></path></g></g><mask id="mask-9vCbuMT_YJo3R44e_4zrW"><rect x="0" y="0" fill="#fff" width="786.556368664413" height="433.42133315270314"></rect><rect x="592.5164593016198" y="283.1643331527032" fill="#000" width="188.07981872558594" height="25" opacity="1"></rect></mask><g transform="translate(592.5164593016201 283.1643331527032) rotate(0 10.573626813962505 11.47752492173015)"><text x="94.03990936279297" y="17.52" font-family="Virgil, Segoe UI Emoji" font-size="20px" fill="#1e1e1e" text-anchor="middle" style="white-space: pre;" direction="ltr" dominant-baseline="alphabetic">Retrieve Summaries</text></g><g mask="url(#mask-VW-7LAD2Vv4Z3Zv3PeLls)" stroke-linecap="round"><g transform="translate(564.8473686644131 432.1503331527031) rotate(0 0 36.349999999999966)"><path d="M-0.39 0.12 C-0.51 6.64, -0.39 26.58, -0.36 38.79 C-0.33 50.99, -0.47 67.51, -0.22 73.35 M1.61 -0.86 C1.26 5.88, -1.04 28.18, -1.5 40.21 C-1.95 52.25, -1.08 66.08, -1.11 71.34" stroke="#1e1e1e" stroke-width="2" fill="none"></path></g><g transform="translate(564.8473686644131 432.1503331527031) rotate(0 0 36.349999999999966)"><path d="M-7.23 55.65 C-5.07 60.38, -3.51 65.79, -1.11 71.34 M-7.23 55.65 C-4.24 61.87, -2.75 67.43, -1.11 71.34" stroke="#1e1e1e" stroke-width="2" fill="none"></path></g><g transform="translate(564.8473686644131 432.1503331527031) rotate(0 0 36.349999999999966)"><path d="M4.29 55.38 C2.63 60.17, 0.36 65.66, -1.11 71.34 M4.29 55.38 C3.2 61.8, 0.62 67.46, -1.11 71.34" stroke="#1e1e1e" stroke-width="2" fill="none"></path></g></g><mask id="mask-VW-7LAD2Vv4Z3Zv3PeLls"><rect x="0" y="0" fill="#fff" width="664.8473686644131" height="604.8503331527031"></rect><rect x="489.45743793931524" y="458.6503331527032" fill="#000" width="150.7798614501953" height="25" opacity="1"></rect></mask><g transform="translate(489.45743793931547 458.6503331527032) rotate(0 75.3811456093498 9.745932615026845)"><text x="75.38993072509766" y="17.52" font-family="Virgil, Segoe UI Emoji" font-size="20px" fill="#1e1e1e" text-anchor="middle" style="white-space: pre;" direction="ltr" dominant-baseline="alphabetic">Send Summaries</text></g><g mask="url(#mask-V1EBfh8H2eZcnnd6VMCWz)" stroke-linecap="round"><g transform="translate(564.8473686644131 555.1503331527031) rotate(0 0 36.35000000000002)"><path d="M-0.36 -0.21 C-0.33 6.37, -0.47 27.31, -0.22 39.65 C0.03 51.98, 0.94 68.11, 1.14 73.79 M1.65 -1.37 C1.54 4.86, -1.18 25.63, -1.29 37.86 C-1.4 50.1, 0.48 66.38, 0.98 72.02" stroke="#1e1e1e" stroke-width="2" fill="none"></path></g><g transform="translate(564.8473686644131 555.1503331527031) rotate(0 0 36.35000000000002)"><path d="M-6.29 56.82 C-4.63 60.59, -1.47 66.58, 0.98 72.02 M-6.29 56.82 C-3.32 63.43, -1.01 68.85, 0.98 72.02" stroke="#1e1e1e" stroke-width="2" fill="none"></path></g><g transform="translate(564.8473686644131 555.1503331527031) rotate(0 0 36.35000000000002)"><path d="M5.19 55.71 C3.78 59.74, 3.86 66.03, 0.98 72.02 M5.19 55.71 C3.67 62.85, 1.51 68.7, 0.98 72.02" stroke="#1e1e1e" stroke-width="2" fill="none"></path></g></g><mask id="mask-V1EBfh8H2eZcnnd6VMCWz"><rect x="0" y="0" fill="#fff" width="664.8473686644131" height="727.8503331527031"></rect><rect x="482.16744465318243" y="581.650333152703" fill="#000" width="165.35984802246094" height="25" opacity="1"></rect></mask><g transform="translate(482.16744465318266 581.6503331527032) rotate(0 82.85911980900505 9.7100237072259)"><text x="82.67992401123047" y="17.52" font-family="Virgil, Segoe UI Emoji" font-size="20px" fill="#1e1e1e" text-anchor="middle" style="white-space: pre;" direction="ltr" dominant-baseline="alphabetic">Present Summary</text></g><g stroke-linecap="round" transform="translate(10 10) rotate(0 435.48216785707723 34.42677811925944)"><path d="M17.21 0 C286.52 5.57, 560.14 2.62, 853.75 0 C862.79 5.38, 865.8 2.43, 870.96 17.21 C866.93 34.58, 875.23 47.91, 870.96 51.64 C875.68 66.23, 864 65.97, 853.75 68.85 C523.76 62.17, 193.57 62.37, 17.21 68.85 C6.38 69.33, 4.22 65.95, 0 51.64 C4.87 43.92, 1.66 31.49, 0 17.21 C4.21 2.91, 0.75 -4.18, 17.21 0" stroke="none" stroke-width="0" fill="#b2f2bb"></path><path d="M17.21 0 C189.65 5.75, 364.69 6.42, 853.75 0 M17.21 0 C340.43 4.2, 661.41 4.72, 853.75 0 M853.75 0 C866.66 -2.49, 870.95 5.61, 870.96 17.21 M853.75 0 C863.97 -2.92, 869.06 1.98, 870.96 17.21 M870.96 17.21 C869.91 28.49, 870.63 29.74, 870.96 51.64 M870.96 17.21 C872.72 28.82, 871.31 44, 870.96 51.64 M870.96 51.64 C873.55 64.23, 867.36 65.37, 853.75 68.85 M870.96 51.64 C871.02 62.44, 865.03 68.44, 853.75 68.85 M853.75 68.85 C580.59 63.99, 308.27 62.8, 17.21 68.85 M853.75 68.85 C623.36 64.35, 391.77 65.11, 17.21 68.85 M17.21 68.85 C3.82 66.95, -0.28 63.56, 0 51.64 M17.21 68.85 C9.98 64.47, 3.07 66.17, 0 51.64 M0 51.64 C1.27 38.15, -3.13 26.52, 0 17.21 M0 51.64 C-0.32 42.21, -1.41 32.56, 0 17.21 M0 17.21 C-3.78 9, 3.27 -0.82, 17.21 0 M0 17.21 C4.25 2.73, 8.58 3.24, 17.21 0" stroke="#1e1e1e" stroke-width="2" fill="none"></path></g><g transform="translate(38.838338511374104 26.92677811925944) rotate(0 406.6438293457031 17.5)"><text x="406.6438293457031" y="24.528" font-family="Virgil, Segoe UI Emoji" font-size="28px" fill="#1e1e1e" text-anchor="middle" style="white-space: pre;" direction="ltr" dominant-baseline="alphabetic">NEAR based Orion Network for Distributed Threat Hunting</text></g></svg>